<mxfile host="a145cedb-da36-4765-af30-ef7b0d17828c" modified="2020-08-07T13:12:28.301Z" agent="5.0 (Macintosh; Intel Mac OS X 10_15_5) AppleWebKit/537.36 (KHTML, like Gecko) Code/1.47.1 Chrome/78.0.3904.130 Electron/7.3.2 Safari/537.36" etag="evQQSBgjZznNTuBwtHbg" version="13.1.3">
    <diagram id="l3T9q4KYv9oL9oxo4qhX" name="DB">
        <mxGraphModel dx="1208" dy="1984" grid="1" gridSize="15" guides="1" tooltips="1" connect="1" arrows="1" fold="1" page="1" pageScale="1" pageWidth="827" pageHeight="1169" math="0" shadow="0">
            <root>
                <mxCell id="0"/>
                <mxCell id="1" parent="0"/>
                <mxCell id="juh3x5DzW0E_Zc7toulQ-3" value="" style="fontSize=12;html=1;endArrow=ERoneToMany;entryX=-0.01;entryY=0.808;entryDx=0;entryDy=0;exitX=1;exitY=0.5;exitDx=0;exitDy=0;rounded=0;entryPerimeter=0;" parent="1" source="g-PdDLhLTCe8zfPFN-K6-2" target="QIGW-eZ6DJEo7gAFJ_Yn-8" edge="1">
                    <mxGeometry width="100" height="100" relative="1" as="geometry">
                        <mxPoint x="270" y="75" as="sourcePoint"/>
                        <mxPoint x="265" y="30" as="targetPoint"/>
                    </mxGeometry>
                </mxCell>
                <mxCell id="juh3x5DzW0E_Zc7toulQ-5" value="" style="fontSize=12;html=1;endArrow=ERoneToMany;entryX=0;entryY=0.5;entryDx=0;entryDy=0;rounded=0;exitX=1;exitY=0.733;exitDx=0;exitDy=0;exitPerimeter=0;" parent="1" source="g-PdDLhLTCe8zfPFN-K6-2" target="QIGW-eZ6DJEo7gAFJ_Yn-17" edge="1">
                    <mxGeometry width="100" height="100" relative="1" as="geometry">
                        <mxPoint x="360" y="210" as="sourcePoint"/>
                        <mxPoint x="565" y="123.5" as="targetPoint"/>
                    </mxGeometry>
                </mxCell>
                <mxCell id="g-PdDLhLTCe8zfPFN-K6-1" value="User" style="swimlane;fontStyle=0;childLayout=stackLayout;horizontal=1;startSize=26;horizontalStack=0;resizeParent=1;resizeParentMax=0;resizeLast=0;collapsible=1;marginBottom=0;align=center;fontSize=14;" parent="1" vertex="1">
                    <mxGeometry x="15" y="132" width="210" height="138" as="geometry"/>
                </mxCell>
                <mxCell id="g-PdDLhLTCe8zfPFN-K6-2" value="id" style="shape=partialRectangle;top=0;left=0;right=0;bottom=1;align=left;verticalAlign=middle;fillColor=none;spacingLeft=34;spacingRight=4;overflow=hidden;rotatable=0;points=[[0,0.5],[1,0.5]];portConstraint=eastwest;dropTarget=0;fontStyle=5;fontSize=12;" parent="g-PdDLhLTCe8zfPFN-K6-1" vertex="1">
                    <mxGeometry y="26" width="210" height="30" as="geometry"/>
                </mxCell>
                <mxCell id="g-PdDLhLTCe8zfPFN-K6-3" value="PK" style="shape=partialRectangle;top=0;left=0;bottom=0;fillColor=none;align=left;verticalAlign=middle;spacingLeft=4;spacingRight=4;overflow=hidden;rotatable=0;points=[];portConstraint=eastwest;part=1;fontSize=12;" parent="g-PdDLhLTCe8zfPFN-K6-2" vertex="1" connectable="0">
                    <mxGeometry width="30" height="30" as="geometry"/>
                </mxCell>
                <mxCell id="g-PdDLhLTCe8zfPFN-K6-4" value="name&#10;" style="shape=partialRectangle;top=0;left=0;right=0;bottom=0;align=left;verticalAlign=top;fillColor=none;spacingLeft=34;spacingRight=4;overflow=hidden;rotatable=0;points=[[0,0.5],[1,0.5]];portConstraint=eastwest;dropTarget=0;fontSize=12;" parent="g-PdDLhLTCe8zfPFN-K6-1" vertex="1">
                    <mxGeometry y="56" width="210" height="26" as="geometry"/>
                </mxCell>
                <mxCell id="g-PdDLhLTCe8zfPFN-K6-5" value="" style="shape=partialRectangle;top=0;left=0;bottom=0;fillColor=none;align=left;verticalAlign=top;spacingLeft=4;spacingRight=4;overflow=hidden;rotatable=0;points=[];portConstraint=eastwest;part=1;fontSize=12;" parent="g-PdDLhLTCe8zfPFN-K6-4" vertex="1" connectable="0">
                    <mxGeometry width="30" height="26" as="geometry"/>
                </mxCell>
                <mxCell id="g-PdDLhLTCe8zfPFN-K6-6" value="email&#10;" style="shape=partialRectangle;top=0;left=0;right=0;bottom=0;align=left;verticalAlign=top;fillColor=none;spacingLeft=34;spacingRight=4;overflow=hidden;rotatable=0;points=[[0,0.5],[1,0.5]];portConstraint=eastwest;dropTarget=0;fontSize=12;" parent="g-PdDLhLTCe8zfPFN-K6-1" vertex="1">
                    <mxGeometry y="82" width="210" height="26" as="geometry"/>
                </mxCell>
                <mxCell id="g-PdDLhLTCe8zfPFN-K6-7" value="" style="shape=partialRectangle;top=0;left=0;bottom=0;fillColor=none;align=left;verticalAlign=top;spacingLeft=4;spacingRight=4;overflow=hidden;rotatable=0;points=[];portConstraint=eastwest;part=1;fontSize=12;" parent="g-PdDLhLTCe8zfPFN-K6-6" vertex="1" connectable="0">
                    <mxGeometry width="30" height="26" as="geometry"/>
                </mxCell>
                <mxCell id="g-PdDLhLTCe8zfPFN-K6-8" value="password" style="shape=partialRectangle;top=0;left=0;right=0;bottom=0;align=left;verticalAlign=top;fillColor=none;spacingLeft=34;spacingRight=4;overflow=hidden;rotatable=0;points=[[0,0.5],[1,0.5]];portConstraint=eastwest;dropTarget=0;fontSize=12;" parent="g-PdDLhLTCe8zfPFN-K6-1" vertex="1">
                    <mxGeometry y="108" width="210" height="26" as="geometry"/>
                </mxCell>
                <mxCell id="g-PdDLhLTCe8zfPFN-K6-9" value="" style="shape=partialRectangle;top=0;left=0;bottom=0;fillColor=none;align=left;verticalAlign=top;spacingLeft=4;spacingRight=4;overflow=hidden;rotatable=0;points=[];portConstraint=eastwest;part=1;fontSize=12;" parent="g-PdDLhLTCe8zfPFN-K6-8" vertex="1" connectable="0">
                    <mxGeometry width="30" height="26" as="geometry"/>
                </mxCell>
                <mxCell id="g-PdDLhLTCe8zfPFN-K6-10" value="" style="shape=partialRectangle;top=0;left=0;right=0;bottom=0;align=left;verticalAlign=top;fillColor=none;spacingLeft=34;spacingRight=4;overflow=hidden;rotatable=0;points=[[0,0.5],[1,0.5]];portConstraint=eastwest;dropTarget=0;fontSize=12;" parent="g-PdDLhLTCe8zfPFN-K6-1" vertex="1">
                    <mxGeometry y="134" width="210" height="4" as="geometry"/>
                </mxCell>
                <mxCell id="g-PdDLhLTCe8zfPFN-K6-11" value="" style="shape=partialRectangle;top=0;left=0;bottom=0;fillColor=none;align=left;verticalAlign=top;spacingLeft=4;spacingRight=4;overflow=hidden;rotatable=0;points=[];portConstraint=eastwest;part=1;fontSize=12;" parent="g-PdDLhLTCe8zfPFN-K6-10" vertex="1" connectable="0">
                    <mxGeometry width="30" height="4" as="geometry"/>
                </mxCell>
                <mxCell id="QIGW-eZ6DJEo7gAFJ_Yn-14" value="Expense" style="swimlane;fontStyle=0;childLayout=stackLayout;horizontal=1;startSize=26;horizontalStack=0;resizeParent=1;resizeParentMax=0;resizeLast=0;collapsible=1;marginBottom=0;align=center;fontSize=14;" parent="1" vertex="1">
                    <mxGeometry x="314" y="210" width="200" height="148" as="geometry"/>
                </mxCell>
                <mxCell id="QIGW-eZ6DJEo7gAFJ_Yn-15" value="id" style="shape=partialRectangle;top=0;left=0;right=0;bottom=1;align=left;verticalAlign=middle;fillColor=none;spacingLeft=34;spacingRight=4;overflow=hidden;rotatable=0;points=[[0,0.5],[1,0.5]];portConstraint=eastwest;dropTarget=0;fontStyle=5;fontSize=12;" parent="QIGW-eZ6DJEo7gAFJ_Yn-14" vertex="1">
                    <mxGeometry y="26" width="200" height="30" as="geometry"/>
                </mxCell>
                <mxCell id="QIGW-eZ6DJEo7gAFJ_Yn-16" value="PK" style="shape=partialRectangle;top=0;left=0;bottom=0;fillColor=none;align=left;verticalAlign=middle;spacingLeft=4;spacingRight=4;overflow=hidden;rotatable=0;points=[];portConstraint=eastwest;part=1;fontSize=12;" parent="QIGW-eZ6DJEo7gAFJ_Yn-15" vertex="1" connectable="0">
                    <mxGeometry width="30" height="30" as="geometry"/>
                </mxCell>
                <mxCell id="QIGW-eZ6DJEo7gAFJ_Yn-17" value="user_id" style="shape=partialRectangle;top=0;left=0;right=0;bottom=0;align=left;verticalAlign=top;fillColor=none;spacingLeft=34;spacingRight=4;overflow=hidden;rotatable=0;points=[[0,0.5],[1,0.5]];portConstraint=eastwest;dropTarget=0;fontSize=12;" parent="QIGW-eZ6DJEo7gAFJ_Yn-14" vertex="1">
                    <mxGeometry y="56" width="200" height="30" as="geometry"/>
                </mxCell>
                <mxCell id="QIGW-eZ6DJEo7gAFJ_Yn-18" value="FK" style="shape=partialRectangle;top=0;left=0;bottom=0;fillColor=none;align=left;verticalAlign=top;spacingLeft=4;spacingRight=4;overflow=hidden;rotatable=0;points=[];portConstraint=eastwest;part=1;fontSize=12;" parent="QIGW-eZ6DJEo7gAFJ_Yn-17" vertex="1" connectable="0">
                    <mxGeometry width="30" height="30" as="geometry"/>
                </mxCell>
                <mxCell id="QIGW-eZ6DJEo7gAFJ_Yn-21" value="total_price&#10;" style="shape=partialRectangle;top=0;left=0;right=0;bottom=0;align=left;verticalAlign=top;fillColor=none;spacingLeft=34;spacingRight=4;overflow=hidden;rotatable=0;points=[[0,0.5],[1,0.5]];portConstraint=eastwest;dropTarget=0;fontSize=12;" parent="QIGW-eZ6DJEo7gAFJ_Yn-14" vertex="1">
                    <mxGeometry y="86" width="200" height="26" as="geometry"/>
                </mxCell>
                <mxCell id="QIGW-eZ6DJEo7gAFJ_Yn-22" value="" style="shape=partialRectangle;top=0;left=0;bottom=0;fillColor=none;align=left;verticalAlign=top;spacingLeft=4;spacingRight=4;overflow=hidden;rotatable=0;points=[];portConstraint=eastwest;part=1;fontSize=12;" parent="QIGW-eZ6DJEo7gAFJ_Yn-21" vertex="1" connectable="0">
                    <mxGeometry width="30" height="26" as="geometry"/>
                </mxCell>
                <mxCell id="juh3x5DzW0E_Zc7toulQ-16" value="date" style="shape=partialRectangle;top=0;left=0;right=0;bottom=0;align=left;verticalAlign=top;fillColor=none;spacingLeft=34;spacingRight=4;overflow=hidden;rotatable=0;points=[[0,0.5],[1,0.5]];portConstraint=eastwest;dropTarget=0;fontSize=12;" parent="QIGW-eZ6DJEo7gAFJ_Yn-14" vertex="1">
                    <mxGeometry y="112" width="200" height="26" as="geometry"/>
                </mxCell>
                <mxCell id="juh3x5DzW0E_Zc7toulQ-17" value="" style="shape=partialRectangle;top=0;left=0;bottom=0;fillColor=none;align=left;verticalAlign=top;spacingLeft=4;spacingRight=4;overflow=hidden;rotatable=0;points=[];portConstraint=eastwest;part=1;fontSize=12;" parent="juh3x5DzW0E_Zc7toulQ-16" vertex="1" connectable="0">
                    <mxGeometry width="30" height="26" as="geometry"/>
                </mxCell>
                <mxCell id="QIGW-eZ6DJEo7gAFJ_Yn-23" value="" style="shape=partialRectangle;top=0;left=0;right=0;bottom=0;align=left;verticalAlign=top;fillColor=none;spacingLeft=34;spacingRight=4;overflow=hidden;rotatable=0;points=[[0,0.5],[1,0.5]];portConstraint=eastwest;dropTarget=0;fontSize=12;" parent="QIGW-eZ6DJEo7gAFJ_Yn-14" vertex="1">
                    <mxGeometry y="138" width="200" height="10" as="geometry"/>
                </mxCell>
                <mxCell id="QIGW-eZ6DJEo7gAFJ_Yn-24" value="" style="shape=partialRectangle;top=0;left=0;bottom=0;fillColor=none;align=left;verticalAlign=top;spacingLeft=4;spacingRight=4;overflow=hidden;rotatable=0;points=[];portConstraint=eastwest;part=1;fontSize=12;" parent="QIGW-eZ6DJEo7gAFJ_Yn-23" vertex="1" connectable="0">
                    <mxGeometry width="30" height="10" as="geometry"/>
                </mxCell>
                <mxCell id="lrINV73aXCRwo-qBLeL8-3" value="" style="fontSize=12;html=1;endArrow=ERoneToMany;rounded=0;exitX=0.535;exitY=1.4;exitDx=0;exitDy=0;entryX=0.535;entryY=0;entryDx=0;entryDy=0;entryPerimeter=0;exitPerimeter=0;" parent="1" source="QIGW-eZ6DJEo7gAFJ_Yn-23" target="2" edge="1">
                    <mxGeometry width="100" height="100" relative="1" as="geometry">
                        <mxPoint x="514" y="13" as="sourcePoint"/>
                        <mxPoint x="585" y="13" as="targetPoint"/>
                        <Array as="points"/>
                    </mxGeometry>
                </mxCell>
                <mxCell id="2" value="Item" style="swimlane;fontStyle=0;childLayout=stackLayout;horizontal=1;startSize=26;horizontalStack=0;resizeParent=1;resizeParentMax=0;resizeLast=0;collapsible=1;marginBottom=0;align=center;fontSize=14;" parent="1" vertex="1">
                    <mxGeometry x="314" y="525" width="200" height="199" as="geometry"/>
                </mxCell>
                <mxCell id="3" value="id" style="shape=partialRectangle;top=0;left=0;right=0;bottom=1;align=left;verticalAlign=middle;fillColor=none;spacingLeft=34;spacingRight=4;overflow=hidden;rotatable=0;points=[[0,0.5],[1,0.5]];portConstraint=eastwest;dropTarget=0;fontStyle=5;fontSize=12;" parent="2" vertex="1">
                    <mxGeometry y="26" width="200" height="30" as="geometry"/>
                </mxCell>
                <mxCell id="4" value="PK" style="shape=partialRectangle;top=0;left=0;bottom=0;fillColor=none;align=left;verticalAlign=middle;spacingLeft=4;spacingRight=4;overflow=hidden;rotatable=0;points=[];portConstraint=eastwest;part=1;fontSize=12;" parent="3" vertex="1" connectable="0">
                    <mxGeometry width="30" height="30" as="geometry"/>
                </mxCell>
                <mxCell id="7" value="expense_id" style="shape=partialRectangle;top=0;left=0;right=0;bottom=0;align=left;verticalAlign=top;fillColor=none;spacingLeft=34;spacingRight=4;overflow=hidden;rotatable=0;points=[[0,0.5],[1,0.5]];portConstraint=eastwest;dropTarget=0;fontSize=12;" parent="2" vertex="1">
                    <mxGeometry y="56" width="200" height="27" as="geometry"/>
                </mxCell>
                <mxCell id="8" value="FK" style="shape=partialRectangle;top=0;left=0;bottom=0;fillColor=none;align=left;verticalAlign=top;spacingLeft=4;spacingRight=4;overflow=hidden;rotatable=0;points=[];portConstraint=eastwest;part=1;fontSize=12;" parent="7" vertex="1" connectable="0">
                    <mxGeometry width="30" height="27" as="geometry"/>
                </mxCell>
                <mxCell id="11" value="category_id&#10;&#10;name&#10;" style="shape=partialRectangle;top=0;left=0;right=0;bottom=0;align=left;verticalAlign=top;fillColor=none;spacingLeft=34;spacingRight=4;overflow=hidden;rotatable=0;points=[[0,0.5],[1,0.5]];portConstraint=eastwest;dropTarget=0;fontSize=12;" parent="2" vertex="1">
                    <mxGeometry y="83" width="200" height="52" as="geometry"/>
                </mxCell>
                <mxCell id="12" value="FK&#10;" style="shape=partialRectangle;top=0;left=0;bottom=0;fillColor=none;align=left;verticalAlign=top;spacingLeft=4;spacingRight=4;overflow=hidden;rotatable=0;points=[];portConstraint=eastwest;part=1;fontSize=12;" parent="11" vertex="1" connectable="0">
                    <mxGeometry width="30" height="52" as="geometry"/>
                </mxCell>
                <mxCell id="13" value="price&#10;&#10;memo" style="shape=partialRectangle;top=0;left=0;right=0;bottom=0;align=left;verticalAlign=top;fillColor=none;spacingLeft=34;spacingRight=4;overflow=hidden;rotatable=0;points=[[0,0.5],[1,0.5]];portConstraint=eastwest;dropTarget=0;fontSize=12;horizontal=1;" parent="2" vertex="1">
                    <mxGeometry y="135" width="200" height="60" as="geometry"/>
                </mxCell>
                <mxCell id="14" value="" style="shape=partialRectangle;top=0;left=0;bottom=0;fillColor=none;align=left;verticalAlign=top;spacingLeft=4;spacingRight=4;overflow=hidden;rotatable=0;points=[];portConstraint=eastwest;part=1;fontSize=12;" parent="13" vertex="1" connectable="0">
                    <mxGeometry width="30" height="60" as="geometry"/>
                </mxCell>
                <mxCell id="9" value="" style="shape=partialRectangle;top=0;left=0;right=0;bottom=0;align=left;verticalAlign=top;fillColor=none;spacingLeft=34;spacingRight=4;overflow=hidden;rotatable=0;points=[[0,0.5],[1,0.5]];portConstraint=eastwest;dropTarget=0;fontSize=12;" parent="2" vertex="1">
                    <mxGeometry y="195" width="200" height="4" as="geometry"/>
                </mxCell>
                <mxCell id="10" value="" style="shape=partialRectangle;top=0;left=0;bottom=0;fillColor=none;align=left;verticalAlign=top;spacingLeft=4;spacingRight=4;overflow=hidden;rotatable=0;points=[];portConstraint=eastwest;part=1;fontSize=12;" parent="9" vertex="1" connectable="0">
                    <mxGeometry width="30" height="4" as="geometry"/>
                </mxCell>
                <mxCell id="juh3x5DzW0E_Zc7toulQ-37" value="category" style="swimlane;fontStyle=0;childLayout=stackLayout;horizontal=1;startSize=26;horizontalStack=0;resizeParent=1;resizeParentMax=0;resizeLast=0;collapsible=1;marginBottom=0;align=center;fontSize=14;" parent="1" vertex="1">
                    <mxGeometry x="627" y="525" width="200" height="90" as="geometry"/>
                </mxCell>
                <mxCell id="juh3x5DzW0E_Zc7toulQ-38" value="id" style="shape=partialRectangle;top=0;left=0;right=0;bottom=1;align=left;verticalAlign=middle;fillColor=none;spacingLeft=34;spacingRight=4;overflow=hidden;rotatable=0;points=[[0,0.5],[1,0.5]];portConstraint=eastwest;dropTarget=0;fontStyle=5;fontSize=12;" parent="juh3x5DzW0E_Zc7toulQ-37" vertex="1">
                    <mxGeometry y="26" width="200" height="30" as="geometry"/>
                </mxCell>
                <mxCell id="juh3x5DzW0E_Zc7toulQ-39" value="PK" style="shape=partialRectangle;top=0;left=0;bottom=0;fillColor=none;align=left;verticalAlign=middle;spacingLeft=4;spacingRight=4;overflow=hidden;rotatable=0;points=[];portConstraint=eastwest;part=1;fontSize=12;" parent="juh3x5DzW0E_Zc7toulQ-38" vertex="1" connectable="0">
                    <mxGeometry width="30" height="30" as="geometry"/>
                </mxCell>
                <mxCell id="juh3x5DzW0E_Zc7toulQ-52" value="name" style="shape=partialRectangle;top=0;left=0;right=0;bottom=0;align=left;verticalAlign=top;fillColor=none;spacingLeft=34;spacingRight=4;overflow=hidden;rotatable=0;points=[[0,0.5],[1,0.5]];portConstraint=eastwest;dropTarget=0;fontSize=12;" parent="juh3x5DzW0E_Zc7toulQ-37" vertex="1">
                    <mxGeometry y="56" width="200" height="34" as="geometry"/>
                </mxCell>
                <mxCell id="juh3x5DzW0E_Zc7toulQ-53" value="" style="shape=partialRectangle;top=0;left=0;bottom=0;fillColor=none;align=left;verticalAlign=top;spacingLeft=4;spacingRight=4;overflow=hidden;rotatable=0;points=[];portConstraint=eastwest;part=1;fontSize=12;" parent="juh3x5DzW0E_Zc7toulQ-52" vertex="1" connectable="0">
                    <mxGeometry width="30" height="34" as="geometry"/>
                </mxCell>
                <mxCell id="31" value="" style="edgeStyle=entityRelationEdgeStyle;fontSize=12;html=1;endArrow=ERmandOne;startArrow=ERmandOne;entryX=0;entryY=0.5;entryDx=0;entryDy=0;exitX=1;exitY=0.5;exitDx=0;exitDy=0;" parent="1" source="3" target="juh3x5DzW0E_Zc7toulQ-38" edge="1">
                    <mxGeometry width="100" height="100" relative="1" as="geometry">
                        <mxPoint x="480" y="400" as="sourcePoint"/>
                        <mxPoint x="580" y="300" as="targetPoint"/>
                    </mxGeometry>
                </mxCell>
                <mxCell id="QIGW-eZ6DJEo7gAFJ_Yn-3" value="Income" style="swimlane;fontStyle=0;childLayout=stackLayout;horizontal=1;startSize=26;horizontalStack=0;resizeParent=1;resizeParentMax=0;resizeLast=0;collapsible=1;marginBottom=0;align=center;fontSize=14;" parent="1" vertex="1">
                    <mxGeometry x="314" y="-90" width="200" height="221" as="geometry"/>
                </mxCell>
                <mxCell id="QIGW-eZ6DJEo7gAFJ_Yn-4" value="id" style="shape=partialRectangle;top=0;left=0;right=0;bottom=1;align=left;verticalAlign=middle;fillColor=none;spacingLeft=34;spacingRight=4;overflow=hidden;rotatable=0;points=[[0,0.5],[1,0.5]];portConstraint=eastwest;dropTarget=0;fontStyle=5;fontSize=12;" parent="QIGW-eZ6DJEo7gAFJ_Yn-3" vertex="1">
                    <mxGeometry y="26" width="200" height="30" as="geometry"/>
                </mxCell>
                <mxCell id="QIGW-eZ6DJEo7gAFJ_Yn-5" value="PK" style="shape=partialRectangle;top=0;left=0;bottom=0;fillColor=none;align=left;verticalAlign=middle;spacingLeft=4;spacingRight=4;overflow=hidden;rotatable=0;points=[];portConstraint=eastwest;part=1;fontSize=12;" parent="QIGW-eZ6DJEo7gAFJ_Yn-4" vertex="1" connectable="0">
                    <mxGeometry width="30" height="30" as="geometry"/>
                </mxCell>
                <mxCell id="QIGW-eZ6DJEo7gAFJ_Yn-8" value="user_id" style="shape=partialRectangle;top=0;left=0;right=0;bottom=0;align=left;verticalAlign=top;fillColor=none;spacingLeft=34;spacingRight=4;overflow=hidden;rotatable=0;points=[[0,0.5],[1,0.5]];portConstraint=eastwest;dropTarget=0;fontSize=12;" parent="QIGW-eZ6DJEo7gAFJ_Yn-3" vertex="1">
                    <mxGeometry y="56" width="200" height="26" as="geometry"/>
                </mxCell>
                <mxCell id="QIGW-eZ6DJEo7gAFJ_Yn-9" value="FK" style="shape=partialRectangle;top=0;left=0;bottom=0;fillColor=none;align=left;verticalAlign=top;spacingLeft=4;spacingRight=4;overflow=hidden;rotatable=0;points=[];portConstraint=eastwest;part=1;fontSize=12;" parent="QIGW-eZ6DJEo7gAFJ_Yn-8" vertex="1" connectable="0">
                    <mxGeometry width="30" height="26" as="geometry"/>
                </mxCell>
                <mxCell id="QIGW-eZ6DJEo7gAFJ_Yn-12" value="category" style="shape=partialRectangle;top=0;left=0;right=0;bottom=0;align=left;verticalAlign=top;fillColor=none;spacingLeft=34;spacingRight=4;overflow=hidden;rotatable=0;points=[[0,0.5],[1,0.5]];portConstraint=eastwest;dropTarget=0;fontSize=12;" parent="QIGW-eZ6DJEo7gAFJ_Yn-3" vertex="1">
                    <mxGeometry y="82" width="200" height="27" as="geometry"/>
                </mxCell>
                <mxCell id="QIGW-eZ6DJEo7gAFJ_Yn-13" value="" style="shape=partialRectangle;top=0;left=0;bottom=0;fillColor=none;align=left;verticalAlign=top;spacingLeft=4;spacingRight=4;overflow=hidden;rotatable=0;points=[];portConstraint=eastwest;part=1;fontSize=12;" parent="QIGW-eZ6DJEo7gAFJ_Yn-12" vertex="1" connectable="0">
                    <mxGeometry width="30" height="27" as="geometry"/>
                </mxCell>
                <mxCell id="QIGW-eZ6DJEo7gAFJ_Yn-6" value="price&#10;" style="shape=partialRectangle;top=0;left=0;right=0;bottom=0;align=left;verticalAlign=top;fillColor=none;spacingLeft=34;spacingRight=4;overflow=hidden;rotatable=0;points=[[0,0.5],[1,0.5]];portConstraint=eastwest;dropTarget=0;fontSize=12;" parent="QIGW-eZ6DJEo7gAFJ_Yn-3" vertex="1">
                    <mxGeometry y="109" width="200" height="26" as="geometry"/>
                </mxCell>
                <mxCell id="QIGW-eZ6DJEo7gAFJ_Yn-7" value="" style="shape=partialRectangle;top=0;left=0;bottom=0;fillColor=none;align=left;verticalAlign=top;spacingLeft=4;spacingRight=4;overflow=hidden;rotatable=0;points=[];portConstraint=eastwest;part=1;fontSize=12;" parent="QIGW-eZ6DJEo7gAFJ_Yn-6" vertex="1" connectable="0">
                    <mxGeometry width="30" height="26" as="geometry"/>
                </mxCell>
                <mxCell id="juh3x5DzW0E_Zc7toulQ-12" value="date" style="shape=partialRectangle;top=0;left=0;right=0;bottom=0;align=left;verticalAlign=top;fillColor=none;spacingLeft=34;spacingRight=4;overflow=hidden;rotatable=0;points=[[0,0.5],[1,0.5]];portConstraint=eastwest;dropTarget=0;fontSize=12;" parent="QIGW-eZ6DJEo7gAFJ_Yn-3" vertex="1">
                    <mxGeometry y="135" width="200" height="26" as="geometry"/>
                </mxCell>
                <mxCell id="juh3x5DzW0E_Zc7toulQ-13" value="" style="shape=partialRectangle;top=0;left=0;bottom=0;fillColor=none;align=left;verticalAlign=top;spacingLeft=4;spacingRight=4;overflow=hidden;rotatable=0;points=[];portConstraint=eastwest;part=1;fontSize=12;" parent="juh3x5DzW0E_Zc7toulQ-12" vertex="1" connectable="0">
                    <mxGeometry width="30" height="26" as="geometry"/>
                </mxCell>
                <mxCell id="32" value="store_name&#10;" style="shape=partialRectangle;top=0;left=0;right=0;bottom=0;align=left;verticalAlign=top;fillColor=none;spacingLeft=34;spacingRight=4;overflow=hidden;rotatable=0;points=[[0,0.5],[1,0.5]];portConstraint=eastwest;dropTarget=0;fontSize=12;" vertex="1" parent="QIGW-eZ6DJEo7gAFJ_Yn-3">
                    <mxGeometry y="161" width="200" height="30" as="geometry"/>
                </mxCell>
                <mxCell id="33" value="" style="shape=partialRectangle;top=0;left=0;bottom=0;fillColor=none;align=left;verticalAlign=top;spacingLeft=4;spacingRight=4;overflow=hidden;rotatable=0;points=[];portConstraint=eastwest;part=1;fontSize=12;" vertex="1" connectable="0" parent="32">
                    <mxGeometry width="30" height="30" as="geometry"/>
                </mxCell>
                <mxCell id="juh3x5DzW0E_Zc7toulQ-6" value="memo&#10;" style="shape=partialRectangle;top=0;left=0;right=0;bottom=0;align=left;verticalAlign=top;fillColor=none;spacingLeft=34;spacingRight=4;overflow=hidden;rotatable=0;points=[[0,0.5],[1,0.5]];portConstraint=eastwest;dropTarget=0;fontSize=12;" parent="QIGW-eZ6DJEo7gAFJ_Yn-3" vertex="1">
                    <mxGeometry y="191" width="200" height="30" as="geometry"/>
                </mxCell>
                <mxCell id="juh3x5DzW0E_Zc7toulQ-7" value="" style="shape=partialRectangle;top=0;left=0;bottom=0;fillColor=none;align=left;verticalAlign=top;spacingLeft=4;spacingRight=4;overflow=hidden;rotatable=0;points=[];portConstraint=eastwest;part=1;fontSize=12;" parent="juh3x5DzW0E_Zc7toulQ-6" vertex="1" connectable="0">
                    <mxGeometry width="30" height="30" as="geometry"/>
                </mxCell>
            </root>
        </mxGraphModel>
    </diagram>
</mxfile>
